<svg id="svg" version="1.1" width="399.99" height="265.4" xmlns="http://www.w3.org/2000/svg" xmlns:xlink="http://www.w3.org/1999/xlink" style="display: block;"><g id="svgg"><path id="path0" style="fill: white;" d="M90.667 9.119 C 71.021 12.309,49.657 27.810,42.485 44.079 C 41.939 45.319,41.006 47.429,40.412 48.767 C 39.819 50.106,39.333 51.656,39.333 52.212 C 39.333 52.768,39.004 53.332,38.602 53.466 C 37.514 53.829,37.035 66.949,37.951 71.333 C 38.372 73.350,38.983 77.400,39.310 80.333 C 39.947 86.062,41.506 90.445,46.700 101.108 C 50.595 109.105,50.461 108.092,48.075 111.547 C 46.137 114.352,43.343 115.780,37.364 117.021 C 34.505 117.615,22.702 122.318,19.427 124.170 C 15.737 126.255,7.382 134.660,6.011 137.667 C 2.697 144.930,1.048 155.047,2.925 156.604 C 3.602 157.166,3.754 158.484,3.503 161.606 C 2.949 168.514,5.399 176.381,8.981 179.200 C 11.446 181.138,11.194 181.472,5.341 184.017 C 0.957 185.924,0.014 186.599,0.008 187.833 C -0.001 189.594,0.223 189.650,2.190 188.380 C 3.002 187.855,6.102 186.809,9.078 186.055 C 16.745 184.112,25.390 180.648,36.670 174.998 C 42.039 172.309,46.775 170.322,47.196 170.582 C 47.955 171.051,51.970 178.270,54.659 184.000 C 60.713 196.904,66.486 207.695,67.430 207.869 C 68.552 208.075,80.397 196.841,79.744 196.188 C 79.554 195.999,76.836 198.298,73.704 201.297 C 70.498 204.368,67.688 206.553,67.275 206.297 C 66.870 206.047,63.546 199.653,59.887 192.088 C 56.228 184.523,51.875 175.593,50.214 172.243 C 46.843 165.446,46.828 164.824,49.886 158.858 C 50.865 156.947,52.527 153.696,53.578 151.633 C 56.201 146.485,64.207 140.709,68.772 140.670 C 70.612 140.655,63.045 156.702,60.472 158.271 C 58.938 159.207,56.751 156.618,56.582 153.667 L 56.467 151.667 56.182 153.572 C 55.607 157.421,55.997 157.993,74.518 180.469 C 79.413 186.410,84.003 191.456,84.717 191.683 C 85.431 191.909,86.507 193.048,87.108 194.214 C 87.710 195.380,90.206 199.033,92.654 202.333 C 97.719 209.158,101.669 215.110,103.716 219.000 C 104.488 220.467,106.706 224.517,108.644 228.000 C 110.583 231.483,113.913 238.012,116.044 242.508 C 119.968 250.784,122.293 254.667,123.324 254.667 C 124.873 254.667,122.454 222.723,119.589 205.333 C 115.776 182.190,115.883 178.342,120.760 163.333 C 123.437 155.094,123.222 155.197,128.116 159.822 C 130.435 162.015,133.533 164.894,135.000 166.220 L 137.667 168.631 135.182 168.649 C 132.249 168.670,131.410 169.708,129.457 175.733 C 128.732 177.969,127.657 180.729,127.069 181.866 C 126.481 183.003,126.000 185.425,126.000 187.247 C 126.000 189.069,125.250 194.029,124.333 198.269 C 122.662 205.997,122.201 212.900,123.245 214.547 C 123.578 215.072,123.964 212.646,124.201 208.547 C 124.419 204.763,125.083 200.167,125.677 198.333 C 126.271 196.500,126.851 192.900,126.966 190.333 C 127.158 186.058,127.982 183.479,131.709 175.494 C 131.753 175.400,133.978 176.225,136.653 177.328 C 139.328 178.431,141.775 179.333,142.092 179.333 C 142.894 179.333,142.815 176.170,142.000 175.667 C 140.113 174.501,141.421 173.535,144.167 174.067 C 145.725 174.369,151.500 175.425,157.000 176.414 C 174.470 179.556,180.789 184.617,196.024 207.667 C 198.689 211.700,203.638 218.750,207.020 223.333 C 210.402 227.917,214.152 233.317,215.354 235.333 C 216.555 237.350,218.934 240.500,220.641 242.333 C 225.432 247.482,229.353 252.418,234.151 259.342 C 236.568 262.830,239.173 266.252,239.940 266.945 C 241.574 268.425,241.741 269.885,240.337 270.424 C 238.571 271.102,239.983 271.969,242.193 271.564 C 245.805 270.902,249.773 268.175,252.960 264.163 C 257.023 259.048,262.554 254.103,268.833 249.971 C 271.675 248.100,274.000 246.105,274.000 245.536 C 274.000 244.539,289.111 219.923,292.438 215.500 C 294.512 212.742,294.940 212.772,300.341 216.053 C 302.803 217.549,309.059 220.864,314.242 223.420 C 319.426 225.975,323.925 228.623,324.240 229.303 C 324.801 230.512,319.196 242.077,310.439 257.782 C 308.768 260.778,306.928 264.856,306.350 266.844 C 305.772 268.832,304.866 271.030,304.337 271.729 C 302.977 273.527,303.103 274.000,304.947 274.000 C 306.206 274.000,306.660 273.550,307.010 271.955 C 307.257 270.830,307.879 269.105,308.392 268.122 C 308.905 267.138,309.327 265.804,309.329 265.158 C 309.331 264.511,309.589 263.461,309.902 262.824 C 310.215 262.188,311.031 260.467,311.716 259.000 C 312.401 257.533,315.019 252.883,317.535 248.667 C 326.020 234.444,328.279 228.817,326.357 226.693 C 325.146 225.355,326.841 222.570,333.356 215.199 C 341.322 206.185,344.608 203.453,351.333 200.249 C 362.208 195.069,371.722 191.124,376.000 190.020 C 383.656 188.045,385.957 187.191,389.936 184.848 C 395.023 181.852,400.307 177.252,399.934 176.144 C 399.780 175.687,398.338 176.607,396.527 178.319 C 392.225 182.386,387.064 184.833,376.022 188.040 C 359.689 192.784,343.072 200.929,337.609 206.868 C 335.807 208.827,332.714 212.194,330.735 214.351 C 328.755 216.507,326.087 219.732,324.804 221.517 C 322.032 225.376,322.197 225.387,312.375 220.735 C 302.169 215.902,297.769 212.886,298.328 211.107 C 300.193 205.171,299.183 194.219,295.582 181.333 C 294.133 176.149,293.840 173.820,293.965 168.500 C 294.280 155.151,294.201 148.207,293.684 143.844 C 293.291 140.522,293.374 139.087,294.005 138.328 C 295.052 137.066,294.297 136.103,293.156 137.246 C 292.574 137.828,292.283 141.813,292.160 150.868 C 292.065 157.907,291.938 166.517,291.879 170.000 C 291.814 173.833,292.184 178.044,292.816 180.667 C 298.966 206.177,299.264 210.667,294.804 210.667 C 294.512 210.667,293.095 212.212,291.655 214.101 C 290.214 215.991,288.727 217.870,288.351 218.278 C 287.975 218.686,287.067 220.197,286.333 221.634 C 285.600 223.072,283.950 225.524,282.667 227.084 C 281.383 228.643,279.749 231.062,279.036 232.460 C 274.287 241.756,268.018 248.691,260.948 252.468 C 256.261 254.971,255.364 255.769,251.000 261.309 C 244.726 269.273,243.925 269.749,242.252 266.500 C 241.148 264.355,237.587 259.050,231.623 250.667 C 229.927 248.283,226.508 244.233,224.024 241.667 C 221.540 239.100,218.944 235.957,218.254 234.682 C 217.564 233.408,214.975 229.586,212.500 226.190 C 210.025 222.794,208.000 219.736,208.000 219.396 C 208.000 219.056,207.747 218.678,207.438 218.556 C 206.802 218.304,199.006 207.690,193.000 198.900 C 181.232 181.676,170.683 175.347,150.461 173.380 C 143.343 172.688,140.213 171.395,138.856 168.589 C 138.409 167.666,135.034 163.990,131.356 160.421 C 127.677 156.851,124.667 153.783,124.667 153.604 C 124.667 152.187,129.000 144.575,130.779 142.867 C 135.894 137.956,139.162 137.710,151.170 141.333 C 167.413 146.235,173.333 144.113,173.333 133.389 C 173.333 128.324,173.383 128.169,175.667 126.091 C 178.784 123.255,178.406 119.118,175.145 120.370 C 171.733 121.679,161.035 108.637,163.177 105.779 C 166.586 101.232,168.956 98.723,169.307 99.291 C 171.130 102.240,179.359 98.103,178.383 94.728 C 176.866 89.482,177.142 87.485,179.930 83.510 C 184.143 77.504,183.997 77.047,174.925 67.809 C 169.630 62.416,167.334 59.626,167.607 58.914 C 168.710 56.042,168.745 54.552,167.746 53.027 C 165.280 49.263,160.000 38.247,160.000 36.866 C 160.000 34.790,154.247 23.813,152.098 21.789 C 147.642 17.591,136.091 13.015,128.116 12.288 C 125.669 12.065,122.666 11.577,121.443 11.204 C 114.086 8.959,98.256 7.887,90.667 9.119 M151.266 28.431 C 157.078 33.405,166.000 50.989,166.000 57.467 L 166.000 61.645 172.961 68.656 C 181.416 77.173,181.640 77.797,177.977 82.671 C 175.533 85.922,175.258 86.651,175.530 89.167 C 175.824 91.883,175.761 92.000,174.017 92.000 C 169.222 92.000,160.203 103.290,160.969 108.333 C 161.813 113.890,168.562 123.410,172.617 124.761 C 173.365 125.010,173.315 125.408,172.351 126.880 C 171.391 128.344,171.250 129.450,171.612 132.654 C 172.721 142.459,164.880 145.244,151.946 139.639 C 138.051 133.617,129.316 137.229,122.853 151.667 C 115.291 168.561,113.921 179.365,117.015 197.702 C 120.016 215.489,121.211 226.094,121.667 239.000 C 122.166 253.099,122.023 253.330,118.360 244.333 C 111.391 227.216,92.521 195.756,86.274 190.840 C 84.988 189.828,81.625 186.334,78.801 183.076 C 75.977 179.818,71.925 175.168,69.797 172.743 C 67.668 170.318,64.874 166.723,63.588 164.754 L 61.249 161.176 62.597 159.740 C 64.716 157.485,68.632 148.416,70.067 142.443 C 70.786 139.449,71.734 135.812,72.174 134.359 C 72.613 132.907,72.979 129.083,72.986 125.861 C 72.999 120.456,73.103 120.003,74.333 119.993 C 76.787 119.973,78.667 119.187,78.667 118.181 C 78.667 117.398,78.153 117.281,76.268 117.635 C 74.643 117.940,74.010 117.856,74.307 117.376 C 74.548 116.986,76.378 116.667,78.373 116.667 C 82.401 116.667,83.464 115.362,79.500 115.284 L 77.000 115.234 79.667 114.000 C 82.029 112.907,82.143 112.755,80.667 112.669 C 76.089 112.405,76.269 111.618,81.481 109.111 C 84.807 107.511,87.384 105.707,88.940 103.889 C 91.309 101.122,91.322 101.117,92.743 102.389 C 93.882 103.411,93.804 103.132,92.352 101.000 C 84.508 89.476,81.907 78.342,85.309 70.847 C 88.188 64.506,95.919 63.602,99.866 69.145 C 103.148 73.754,96.757 87.528,92.544 84.924 C 92.086 84.641,91.979 84.761,92.270 85.230 C 92.531 85.654,93.328 86.000,94.039 86.000 C 94.751 86.000,95.333 86.300,95.333 86.667 C 95.333 87.033,96.008 87.357,96.833 87.386 C 97.658 87.415,97.970 87.586,97.526 87.766 C 97.017 87.973,96.863 88.816,97.109 90.047 C 97.600 92.500,97.008 92.551,95.715 90.167 C 95.168 89.158,94.718 88.783,94.715 89.333 C 94.712 89.883,95.150 90.916,95.688 91.627 C 96.226 92.339,96.667 93.854,96.667 94.994 C 96.667 96.134,96.969 97.369,97.338 97.738 C 98.891 99.291,98.438 103.543,96.667 104.054 C 95.359 104.430,95.664 104.548,98.086 104.600 C 100.842 104.660,101.258 104.875,101.980 106.618 C 102.425 107.692,103.361 109.088,104.061 109.722 C 105.586 111.102,105.644 110.829,104.370 108.269 C 103.444 106.407,101.658 94.787,102.212 94.232 C 102.361 94.083,102.849 95.395,103.297 97.148 C 105.681 106.475,108.610 111.127,114.000 114.143 L 117.667 116.195 114.113 112.728 C 107.309 106.090,105.495 98.461,108.242 88.030 C 109.874 81.835,113.692 73.716,115.111 73.423 C 116.134 73.212,116.170 73.325,115.384 74.273 C 113.398 76.665,115.421 75.777,122.051 71.345 C 139.441 59.721,146.652 49.701,147.007 36.667 C 147.349 24.094,146.996 24.776,151.266 28.431 M119.969 42.057 C 119.560 42.822,119.093 43.315,118.930 43.153 C 118.464 42.686,119.410 40.667,120.095 40.667 C 120.435 40.667,120.379 41.292,119.969 42.057 M345.722 45.244 C 345.526 45.561,344.665 45.687,343.809 45.524 C 341.965 45.171,341.589 45.592,338.372 51.600 C 337.018 54.131,334.730 57.977,333.288 60.148 C 331.846 62.318,330.667 64.210,330.667 64.351 C 330.667 64.492,329.917 65.713,329.000 67.063 C 328.083 68.414,327.333 70.045,327.333 70.688 C 327.333 71.331,326.883 72.030,326.333 72.241 C 322.304 73.787,327.129 75.325,332.000 74.047 C 333.283 73.711,335.957 73.228,337.941 72.974 L 341.549 72.512 339.916 74.089 C 339.017 74.957,336.344 77.297,333.975 79.290 C 330.128 82.526,323.528 89.061,316.960 96.138 C 312.958 100.449,314.112 101.378,320.455 98.948 C 328.531 95.854,332.000 94.728,331.999 95.203 C 331.998 95.664,331.591 96.167,326.164 102.406 C 324.604 104.199,323.096 105.967,322.813 106.333 C 322.531 106.700,320.817 108.950,319.006 111.333 C 317.194 113.717,315.476 115.767,315.189 115.889 C 314.902 116.011,314.667 116.499,314.667 116.974 C 314.667 117.448,314.217 118.210,313.667 118.667 C 312.580 119.569,312.307 121.333,313.254 121.333 C 313.578 121.333,316.803 118.293,320.421 114.578 C 324.040 110.862,330.825 103.957,335.500 99.232 C 344.819 89.814,345.549 88.379,341.383 87.675 C 338.731 87.227,336.000 88.100,336.000 89.396 C 336.000 89.772,335.700 89.893,335.333 89.667 C 334.207 88.971,334.590 87.222,336.167 85.862 C 341.894 80.918,354.000 68.976,354.000 68.270 C 354.000 66.121,351.175 65.333,343.462 65.333 L 335.888 65.333 337.855 62.833 C 338.937 61.458,340.775 58.683,341.941 56.667 C 344.641 51.995,345.384 50.767,346.896 48.479 C 347.571 47.456,347.956 46.180,347.750 45.643 C 347.334 44.561,346.273 44.352,345.722 45.244 M380.829 46.747 C 379.381 47.165,378.087 48.278,376.945 50.087 C 375.423 52.499,370.216 59.902,368.801 61.667 C 368.507 62.033,368.053 62.783,367.792 63.333 C 367.532 63.883,366.718 65.233,365.985 66.333 C 365.251 67.433,364.470 68.858,364.248 69.500 C 364.026 70.142,363.603 70.667,363.309 70.667 C 363.014 70.667,362.575 71.567,362.333 72.667 C 362.092 73.767,361.653 74.667,361.358 74.667 C 361.063 74.667,360.646 75.192,360.430 75.833 C 360.215 76.475,359.732 77.450,359.358 78.000 C 357.629 80.539,352.003 93.162,352.001 94.506 C 351.999 96.820,354.213 95.110,356.056 91.374 C 357.930 87.574,362.604 80.408,363.403 80.111 C 363.731 79.989,364.000 79.623,364.000 79.297 C 364.000 78.473,368.151 72.450,369.167 71.800 C 369.625 71.507,370.000 70.857,370.000 70.356 C 370.000 69.855,370.227 69.344,370.505 69.222 C 371.367 68.843,375.333 63.516,375.333 62.737 C 375.333 62.332,375.613 62.000,375.955 62.000 C 376.297 62.000,376.787 61.325,377.045 60.500 C 377.302 59.675,377.698 58.850,377.925 58.667 C 381.204 56.013,385.657 47.924,384.485 46.751 C 383.635 45.902,383.756 45.902,380.829 46.747 M149.792 48.543 C 148.177 48.676,147.357 49.040,147.542 49.543 C 147.702 49.978,148.246 50.217,148.750 50.076 C 152.113 49.130,152.553 49.281,156.074 52.587 C 159.734 56.024,160.898 56.577,161.712 55.261 C 163.274 52.732,155.069 48.108,149.792 48.543 M289.333 51.573 C 288.050 51.991,287.000 52.719,287.000 53.191 C 287.000 53.663,286.698 54.263,286.330 54.524 C 285.573 55.062,284.000 59.254,284.000 60.735 C 284.000 61.270,283.122 62.039,282.048 62.445 C 279.713 63.326,279.390 65.126,280.212 72.672 C 280.731 77.444,280.501 78.938,278.772 82.000 C 277.171 84.835,276.414 86.527,275.315 89.719 C 274.653 91.645,274.258 93.369,274.438 93.549 C 274.618 93.729,274.293 94.789,273.716 95.905 C 272.158 98.918,272.371 100.985,274.333 101.879 C 275.576 102.445,276.000 103.151,276.000 104.652 C 276.000 105.760,276.237 106.667,276.526 106.667 C 276.816 106.667,277.041 107.476,277.026 108.466 C 276.979 111.690,280.360 112.005,285.686 109.273 C 288.781 107.686,290.206 107.255,290.546 107.805 C 290.811 108.233,291.771 108.901,292.680 109.290 C 293.589 109.679,294.882 110.373,295.553 110.832 C 296.934 111.777,301.009 107.858,301.761 104.861 C 301.979 103.995,303.114 102.867,304.370 102.271 C 306.594 101.216,309.725 96.506,308.991 95.319 C 308.789 94.992,309.084 93.626,309.645 92.281 C 310.207 90.937,310.667 88.095,310.667 85.966 C 310.667 83.414,311.007 81.754,311.667 81.095 C 312.742 80.020,313.002 78.667,312.133 78.667 C 311.840 78.667,311.240 79.027,310.800 79.467 C 309.472 80.794,309.821 78.634,311.336 76.151 C 312.068 74.950,312.667 73.557,312.667 73.055 C 312.667 72.553,313.095 71.978,313.619 71.777 C 314.142 71.576,314.667 70.569,314.785 69.539 C 315.042 67.301,316.245 67.047,316.546 69.167 C 316.928 71.853,318.000 70.746,318.000 67.667 C 318.000 66.017,317.700 64.667,317.333 64.667 C 316.967 64.667,316.667 64.251,316.667 63.743 C 316.667 61.940,313.358 60.482,310.238 60.910 C 307.417 61.296,306.926 60.988,307.290 59.061 C 307.433 58.299,305.902 57.315,305.224 57.734 C 304.945 57.906,304.995 58.776,305.333 59.667 C 305.719 60.680,305.709 61.434,305.308 61.682 C 304.288 62.313,303.333 61.384,303.333 59.761 C 303.333 58.939,302.958 57.868,302.500 57.381 C 301.815 56.652,301.995 56.572,303.515 56.930 C 304.848 57.245,305.471 57.083,305.753 56.350 C 306.029 55.629,307.100 55.333,309.438 55.333 C 314.442 55.333,316.781 56.929,318.232 61.333 C 318.413 61.883,318.585 61.220,318.614 59.859 C 318.732 54.327,312.380 52.743,299.487 55.092 C 297.705 55.416,296.978 55.160,295.508 53.690 C 292.871 51.053,291.925 50.728,289.333 51.573 M293.448 53.770 C 295.503 55.630,292.908 61.052,290.634 59.647 C 289.885 59.184,289.363 60.187,289.077 62.641 C 288.801 65.013,288.142 65.950,287.464 64.932 C 287.209 64.549,286.475 64.042,285.833 63.806 C 283.607 62.984,284.819 57.422,288.005 53.837 C 289.287 52.395,291.892 52.363,293.448 53.770 M241.892 55.161 C 239.884 56.379,237.741 60.285,236.312 65.333 C 232.689 78.127,231.848 80.968,230.294 85.667 C 228.109 92.272,227.386 97.999,228.894 96.752 C 229.502 96.248,230.000 95.394,230.000 94.852 C 230.000 94.311,230.475 92.773,231.056 91.434 C 231.636 90.095,232.536 88.015,233.056 86.811 C 233.575 85.607,234.000 84.182,234.000 83.644 C 234.000 83.106,234.276 82.667,234.614 82.667 C 234.951 82.667,235.424 81.692,235.663 80.500 C 235.903 79.308,236.547 77.283,237.095 76.000 C 237.642 74.717,238.322 73.067,238.606 72.333 C 238.890 71.600,240.520 68.256,242.228 64.902 C 246.429 56.653,246.286 52.495,241.892 55.161 M391.600 56.138 C 388.070 58.749,378.715 68.775,374.617 74.339 C 371.212 78.962,370.532 80.022,368.636 83.667 C 366.789 87.217,365.938 88.645,364.257 91.014 C 360.682 96.052,360.705 100.404,364.297 98.523 C 366.171 97.542,377.968 85.543,383.660 78.829 C 386.222 75.807,388.547 73.333,388.826 73.333 C 389.105 73.333,389.333 72.950,389.333 72.481 C 389.333 72.013,389.858 71.168,390.500 70.603 C 396.927 64.949,400.350 59.831,399.889 56.568 C 399.560 54.244,394.514 53.983,391.600 56.138 M158.437 57.638 C 158.165 58.346,157.142 58.667,155.152 58.667 C 152.724 58.667,151.900 59.040,150.000 61.000 C 148.440 62.609,148.064 63.333,148.788 63.333 C 149.365 63.333,150.210 62.883,150.667 62.333 C 151.123 61.783,151.760 61.333,152.082 61.333 C 152.403 61.333,152.667 61.783,152.667 62.333 C 152.667 62.883,152.167 63.333,151.556 63.333 C 150.682 63.333,150.826 63.725,152.230 65.167 C 153.212 66.175,154.483 67.600,155.053 68.333 C 156.173 69.772,156.162 69.405,154.932 64.350 C 154.610 63.026,154.867 62.547,156.232 61.925 C 157.168 61.498,158.250 60.242,158.636 59.133 C 159.347 57.094,159.166 55.737,158.437 57.638 M296.000 58.556 C 296.000 59.424,295.207 60.001,294.563 59.602 C 293.873 59.176,294.468 58.000,295.373 58.000 C 295.718 58.000,296.000 58.250,296.000 58.556 M301.660 59.880 C 301.669 61.939,300.376 61.717,300.115 59.615 C 299.964 58.391,300.165 57.944,300.776 58.147 C 301.259 58.309,301.657 59.088,301.660 59.880 M258.667 60.440 C 254.296 61.904,249.155 65.084,246.611 67.897 C 243.843 70.958,243.065 72.118,240.167 77.499 C 239.525 78.691,238.824 79.816,238.608 79.999 C 238.393 80.183,238.038 80.933,237.819 81.667 C 237.600 82.400,236.924 84.350,236.316 86.000 C 232.302 96.891,237.072 109.028,244.279 106.262 C 246.389 105.452,245.332 104.491,242.717 104.842 C 233.936 106.020,234.961 87.682,244.486 73.184 C 253.180 59.951,268.649 56.929,268.662 68.461 C 268.665 70.731,268.401 72.752,268.077 72.952 C 267.753 73.153,267.278 74.715,267.021 76.423 C 266.765 78.132,266.301 80.010,265.990 80.598 C 265.679 81.186,264.457 83.767,263.275 86.333 C 261.141 90.964,253.560 102.000,252.513 102.000 C 251.320 102.000,250.533 98.371,251.273 96.286 C 252.678 92.330,251.783 90.324,250.167 93.805 C 248.870 96.598,249.570 104.667,251.109 104.667 C 253.851 104.667,262.755 92.417,266.131 84.000 C 269.737 75.009,271.500 64.000,269.333 64.000 C 268.967 64.000,268.667 63.584,268.667 63.076 C 268.667 61.066,262.026 59.315,258.667 60.440 M292.287 61.258 C 292.488 61.583,292.232 62.197,291.719 62.624 C 290.680 63.486,289.615 62.495,290.333 61.333 C 290.843 60.508,291.800 60.471,292.287 61.258 M297.833 62.389 C 297.198 63.024,295.924 61.995,296.398 61.229 C 296.679 60.774,297.052 60.785,297.531 61.264 C 297.923 61.657,298.059 62.163,297.833 62.389 M314.667 64.039 C 314.667 64.911,314.384 65.238,313.894 64.934 C 313.468 64.671,311.938 64.503,310.493 64.559 C 307.609 64.672,306.438 64.243,307.028 63.287 C 307.889 61.894,314.667 62.562,314.667 64.039 M283.607 65.084 C 284.281 66.840,282.616 68.411,281.581 66.995 C 280.638 65.706,281.067 64.000,282.333 64.000 C 282.805 64.000,283.378 64.488,283.607 65.084 M303.333 66.722 C 303.333 68.347,301.775 68.117,301.451 66.445 C 301.324 65.787,301.664 65.333,302.284 65.333 C 302.903 65.333,303.333 65.903,303.333 66.722 M294.549 67.111 C 294.225 68.784,292.667 69.014,292.667 67.389 C 292.667 66.570,293.097 66.000,293.716 66.000 C 294.336 66.000,294.676 66.454,294.549 67.111 M312.474 68.167 C 312.038 70.737,310.052 75.608,309.617 75.173 C 309.449 75.005,309.224 73.536,309.117 71.909 C 309.009 70.282,308.694 68.584,308.418 68.136 C 308.099 67.621,308.482 67.095,309.457 66.703 C 312.319 65.555,312.871 65.823,312.474 68.167 M90.905 69.328 C 85.396 71.551,84.996 81.303,90.167 87.327 C 91.542 88.929,92.667 89.997,92.667 89.701 C 92.667 89.404,91.617 87.999,90.333 86.579 C 85.632 81.375,88.519 70.000,94.541 70.000 C 97.252 70.000,98.476 74.619,96.663 78.006 C 96.205 78.862,96.190 79.333,96.620 79.333 C 97.715 79.333,98.667 76.927,98.667 74.160 C 98.667 69.826,95.128 67.623,90.905 69.328 M307.181 69.458 C 306.769 70.694,305.333 70.900,305.333 69.722 C 305.333 69.142,305.808 68.667,306.389 68.667 C 306.969 68.667,307.326 69.023,307.181 69.458 M283.553 72.791 L 282.877 74.306 282.108 72.868 C 280.995 70.789,281.807 68.855,283.206 70.253 C 283.985 71.032,284.068 71.638,283.553 72.791 M298.000 70.333 C 298.000 70.883,297.718 71.333,297.373 71.333 C 296.532 71.333,295.930 70.292,296.463 69.760 C 297.213 69.009,298.000 69.302,298.000 70.333 M252.080 72.237 C 249.666 75.145,245.335 82.476,245.346 83.635 C 245.353 84.506,246.695 82.954,249.051 79.348 C 252.765 73.666,253.651 72.696,255.143 72.677 C 256.411 72.661,257.608 75.325,256.728 76.205 C 256.328 76.606,256.000 77.439,256.000 78.057 C 256.000 78.675,255.552 80.040,255.004 81.090 C 254.456 82.141,254.006 83.500,254.004 84.111 C 254.002 84.722,253.681 85.329,253.290 85.459 C 252.900 85.589,252.490 86.825,252.381 88.206 C 252.145 91.185,253.426 91.243,254.032 88.282 C 254.251 87.208,255.234 84.731,256.215 82.777 C 257.197 80.823,258.000 78.648,258.000 77.945 C 258.000 77.242,258.300 76.667,258.667 76.667 C 259.033 76.667,259.331 75.842,259.328 74.833 C 259.320 71.982,253.902 70.041,252.080 72.237 M314.667 73.333 C 314.667 74.067,314.967 74.667,315.333 74.667 C 315.700 74.667,316.000 74.067,316.000 73.333 C 316.000 72.600,315.700 72.000,315.333 72.000 C 314.967 72.000,314.667 72.600,314.667 73.333 M307.333 72.945 C 307.333 73.099,307.151 73.699,306.929 74.279 C 306.357 75.768,305.333 75.589,305.333 74.000 C 305.333 73.259,305.778 72.667,306.333 72.667 C 306.883 72.667,307.333 72.792,307.333 72.945 M217.068 76.105 C 216.481 76.944,216.000 77.870,216.000 78.162 C 216.000 78.455,215.038 80.713,213.863 83.181 C 212.688 85.648,211.712 87.717,211.695 87.779 C 211.678 87.841,210.840 88.099,209.832 88.351 C 207.728 88.880,207.279 87.483,209.000 85.762 C 209.550 85.212,210.000 84.436,210.000 84.039 C 210.000 83.641,210.364 82.733,210.808 82.021 C 211.253 81.310,211.417 80.528,211.173 80.284 C 210.400 79.511,208.532 81.966,206.969 85.810 C 205.731 88.856,205.055 89.669,203.229 90.305 C 202.003 90.731,200.100 91.580,199.000 92.190 C 197.900 92.801,196.475 93.493,195.833 93.728 C 195.192 93.963,194.667 94.388,194.667 94.673 C 194.667 95.498,196.853 96.111,197.288 95.407 C 197.678 94.775,203.448 92.559,203.796 92.907 C 205.127 94.238,201.982 97.315,197.931 98.643 C 195.452 99.456,192.879 100.519,192.213 101.006 C 189.918 102.684,191.833 102.705,196.386 101.053 C 198.897 100.141,201.050 99.494,201.171 99.615 C 201.559 100.003,198.905 105.918,195.688 111.837 C 194.641 113.764,193.981 115.537,194.221 115.777 C 194.735 116.290,197.333 114.092,197.333 113.145 C 197.333 112.789,198.207 110.660,199.276 108.415 C 200.344 106.170,201.735 103.096,202.367 101.584 C 203.441 99.014,208.000 96.164,208.000 98.062 C 208.000 98.395,207.700 98.667,207.333 98.667 C 206.967 98.667,206.665 99.192,206.663 99.833 C 206.660 100.475,206.210 101.859,205.663 102.910 C 205.115 103.960,204.667 105.348,204.667 105.995 C 204.667 106.641,204.217 107.544,203.667 108.000 C 203.117 108.456,202.667 109.333,202.667 109.948 C 202.667 110.563,202.307 111.427,201.867 111.867 C 200.911 112.822,201.629 112.912,203.258 112.041 C 204.424 111.416,204.868 110.513,208.364 101.667 C 210.659 95.858,210.355 96.173,215.430 94.355 C 222.998 91.643,223.603 91.336,222.851 90.585 C 222.363 90.097,220.718 90.488,217.409 91.878 C 214.800 92.974,212.496 93.597,212.290 93.263 C 211.053 91.261,214.777 88.000,218.300 88.000 C 219.235 88.000,220.000 87.700,220.000 87.333 C 220.000 86.687,218.219 86.353,215.833 86.553 C 214.340 86.678,214.309 86.885,216.733 80.600 C 218.844 75.125,218.974 73.384,217.068 76.105 M313.000 76.000 C 312.456 76.880,313.253 78.128,314.046 77.638 C 314.856 77.138,314.851 75.333,314.039 75.333 C 313.694 75.333,313.227 75.633,313.000 76.000 M300.000 81.373 C 300.000 83.918,299.741 86.000,299.425 86.000 C 298.808 86.000,297.915 77.344,298.443 76.490 C 299.314 75.080,300.000 77.231,300.000 81.373 M163.675 77.505 C 163.009 79.104,163.816 83.017,165.018 84.015 C 166.196 84.992,166.198 84.716,165.053 80.000 C 164.407 77.340,164.029 76.655,163.675 77.505 M288.667 78.333 C 288.667 79.370,288.289 80.000,287.667 80.000 C 286.591 80.000,286.431 79.389,287.071 77.721 C 287.694 76.098,288.667 76.471,288.667 78.333 M90.795 79.394 C 91.178 80.556,93.908 81.025,94.843 80.090 C 95.317 79.616,95.138 79.418,94.266 79.456 C 93.570 79.487,92.434 79.273,91.742 78.983 C 90.812 78.592,90.565 78.698,90.795 79.394 M171.529 80.884 C 168.878 81.855,167.705 82.984,168.318 83.975 C 168.638 84.493,169.494 84.194,171.015 83.033 C 172.241 82.098,173.547 81.333,173.916 81.333 C 174.286 81.333,174.773 81.033,175.000 80.667 C 175.528 79.812,174.235 79.893,171.529 80.884 M292.825 86.160 C 292.993 87.356,293.332 88.792,293.580 89.352 C 294.147 90.639,292.462 93.031,291.434 92.396 C 290.632 91.900,290.340 84.549,291.093 83.796 C 291.852 83.037,292.512 83.938,292.825 86.160 M282.000 86.579 C 282.000 87.587,281.560 88.994,281.021 89.706 C 279.895 91.196,279.686 93.333,280.667 93.333 C 281.033 93.333,281.333 92.733,281.333 92.000 C 281.333 91.259,281.778 90.667,282.333 90.667 C 282.962 90.667,283.333 91.301,283.333 92.377 C 283.333 93.318,283.680 94.736,284.104 95.528 C 285.826 98.746,285.957 101.322,284.467 102.709 C 282.459 104.580,281.696 104.005,281.463 100.448 C 281.168 95.920,280.000 96.627,280.000 101.333 C 280.000 105.890,281.444 106.678,284.863 103.988 C 285.920 103.157,286.735 102.904,286.996 103.326 C 287.228 103.702,286.949 104.189,286.376 104.409 C 284.657 105.069,285.185 106.182,287.000 105.726 C 287.917 105.496,288.667 105.565,288.667 105.878 C 288.667 106.698,281.897 110.008,280.324 109.957 C 279.004 109.915,281.158 108.670,284.167 107.737 C 284.808 107.538,285.333 107.066,285.333 106.688 C 285.333 105.806,283.542 105.790,283.000 106.667 C 281.745 108.697,278.000 106.802,278.000 104.138 C 278.000 103.098,277.531 102.419,276.654 102.190 C 274.605 101.654,275.716 94.352,278.735 88.509 C 279.064 87.872,279.333 87.035,279.333 86.648 C 279.333 85.665,280.895 84.076,281.500 84.443 C 281.775 84.609,282.000 85.570,282.000 86.579 M305.708 87.133 C 305.398 87.940,305.095 88.028,304.540 87.473 C 303.984 86.918,304.027 86.438,304.704 85.622 C 305.738 84.376,306.389 85.357,305.708 87.133 M243.333 86.627 C 243.333 87.339,243.072 88.083,242.753 88.280 C 240.736 89.526,241.721 94.667,243.976 94.667 C 244.787 94.667,247.828 92.833,249.214 91.509 C 250.558 90.225,249.422 90.503,246.863 92.085 C 243.865 93.938,242.691 93.037,243.866 89.786 C 244.841 87.090,244.894 85.333,244.000 85.333 C 243.633 85.333,243.333 85.916,243.333 86.627 M286.929 91.374 C 287.404 94.346,286.868 96.057,285.927 94.571 C 285.175 93.385,285.166 88.667,285.915 88.667 C 286.235 88.667,286.691 89.885,286.929 91.374 M209.881 91.833 C 209.624 94.028,208.247 95.283,206.063 95.312 C 204.578 95.332,204.538 95.247,205.516 94.167 C 206.097 93.525,206.518 92.751,206.452 92.446 C 206.357 92.001,209.021 90.118,209.881 90.024 C 209.999 90.011,209.999 90.825,209.881 91.833 M174.333 97.389 C 174.333 98.782,174.063 98.971,172.338 98.783 C 169.598 98.484,169.408 98.095,171.268 96.587 C 173.243 94.986,174.333 95.271,174.333 97.389 M307.333 97.333 C 307.333 98.074,306.889 98.667,306.333 98.667 C 305.778 98.667,305.333 98.074,305.333 97.333 C 305.333 96.593,305.778 96.000,306.333 96.000 C 306.889 96.000,307.333 96.593,307.333 97.333 M288.667 98.333 C 288.667 98.883,288.367 99.333,288.000 99.333 C 287.633 99.333,287.333 98.883,287.333 98.333 C 287.333 97.783,287.633 97.333,288.000 97.333 C 288.367 97.333,288.667 97.783,288.667 98.333 M298.000 101.667 C 298.000 102.583,297.700 103.333,297.333 103.333 C 296.967 103.333,296.676 103.858,296.688 104.500 C 296.708 105.581,296.778 105.576,297.644 104.433 C 298.615 103.150,300.000 103.447,300.000 104.937 C 300.000 106.485,297.173 107.253,295.500 106.160 C 293.640 104.945,293.615 104.003,295.382 101.757 C 297.116 99.552,298.000 99.521,298.000 101.667 M344.287 102.834 C 341.149 106.492,339.360 110.859,340.669 111.668 C 341.790 112.361,347.251 106.115,347.723 103.602 C 348.245 100.820,346.373 100.401,344.287 102.834 M170.699 105.477 C 168.231 109.781,168.232 109.554,170.659 113.785 C 173.847 119.344,175.133 118.870,172.249 113.200 C 170.988 110.721,171.103 108.068,172.597 105.137 C 174.576 101.254,172.955 101.545,170.699 105.477 M226.130 104.241 C 222.975 107.711,222.255 112.010,224.833 111.986 C 226.663 111.968,230.000 107.545,230.000 105.138 C 230.000 102.882,227.824 102.378,226.130 104.241 M355.469 105.996 C 354.844 107.093,354.108 107.993,353.833 107.996 C 353.558 107.998,353.333 108.413,353.333 108.918 C 353.333 109.423,352.883 110.210,352.333 110.667 C 350.649 112.064,351.081 114.000,353.077 114.000 C 356.123 114.000,361.700 106.879,360.357 104.705 C 359.436 103.215,356.629 103.957,355.469 105.996 M65.661 117.423 C 72.761 122.288,73.777 137.259,67.148 139.356 C 59.170 141.881,55.479 144.529,53.707 149.000 C 53.350 149.899,53.073 150.051,52.856 149.466 C 52.562 148.676,53.172 146.553,54.713 143.000 C 57.637 136.259,58.161 134.027,58.328 127.616 C 58.587 117.615,61.016 114.240,65.661 117.423 M123.260 125.591 C 125.409 127.808,135.901 133.655,136.555 133.000 C 137.000 132.556,137.022 132.571,131.667 129.675 C 129.100 128.287,125.907 126.292,124.571 125.242 C 121.274 122.652,120.588 122.834,123.260 125.591 M352.333 136.897 C 349.767 139.592,344.517 145.620,340.667 150.293 C 333.991 158.395,327.716 163.333,324.097 163.333 C 323.766 163.333,321.767 164.374,319.655 165.645 C 309.996 171.462,305.341 169.149,305.328 158.527 C 305.317 149.128,303.029 140.345,300.011 138.114 C 296.736 135.693,295.813 136.443,298.716 139.167 C 301.982 142.230,303.019 145.721,303.996 156.944 C 304.743 165.532,304.634 165.269,309.689 170.667 C 313.584 174.826,315.638 178.146,316.341 181.418 C 317.233 185.568,318.141 186.672,318.762 184.360 C 319.054 183.275,319.040 182.225,318.730 182.027 C 318.421 181.829,317.956 180.692,317.697 179.500 C 317.439 178.308,316.996 177.333,316.713 177.333 C 316.431 177.333,315.287 175.865,314.171 174.070 L 312.143 170.807 316.511 169.373 C 318.914 168.585,321.745 167.211,322.804 166.320 C 323.862 165.430,325.839 164.388,327.197 164.006 C 331.016 162.929,334.647 160.047,338.578 154.974 C 342.310 150.157,342.799 149.923,347.000 150.940 C 348.897 151.399,348.934 151.371,347.706 150.379 C 346.994 149.804,345.869 149.333,345.206 149.333 C 343.418 149.333,343.690 148.664,347.032 144.845 C 349.741 141.748,350.290 141.414,352.198 141.707 C 354.048 141.992,354.133 141.947,352.833 141.373 C 350.802 140.475,350.857 140.330,354.659 136.547 C 358.410 132.816,360.857 132.361,361.182 135.333 C 361.394 137.268,355.837 146.153,348.234 156.037 C 345.539 159.541,343.333 162.613,343.333 162.864 C 343.333 163.413,352.098 167.458,352.474 167.082 C 352.780 166.775,349.643 164.218,348.467 163.815 C 347.801 163.588,357.185 154.061,358.646 153.481 C 358.903 153.379,359.918 154.099,360.900 155.082 C 361.883 156.065,362.825 156.730,362.995 156.561 C 363.538 156.018,361.293 153.333,360.296 153.333 C 358.717 153.333,359.172 152.436,362.311 149.355 C 365.052 146.665,365.426 146.495,367.009 147.216 C 369.071 148.155,369.333 148.177,369.333 147.411 C 369.333 147.087,368.733 146.665,368.000 146.474 C 365.933 145.933,366.353 145.101,370.744 141.035 C 375.075 137.026,377.995 136.276,379.558 138.773 C 380.750 140.678,367.626 156.385,358.471 164.008 C 353.930 167.790,353.250 168.903,355.055 169.595 C 356.740 170.242,357.406 170.070,357.196 169.044 C 357.088 168.518,360.165 164.987,364.033 161.197 C 367.901 157.407,372.401 152.564,374.033 150.434 C 375.665 148.304,377.839 145.471,378.865 144.138 C 382.353 139.605,380.220 134.924,375.260 136.227 C 374.384 136.458,371.117 139.052,368.000 141.992 C 364.883 144.932,361.010 148.462,359.392 149.835 C 357.775 151.209,354.727 154.058,352.620 156.167 C 350.513 158.275,348.576 160.000,348.315 160.000 C 347.804 160.000,350.884 155.782,352.782 153.885 C 353.421 153.245,354.565 151.585,355.323 150.194 C 356.081 148.804,358.035 145.567,359.666 143.000 C 366.926 131.572,361.614 127.152,352.333 136.897 M138.333 134.000 C 138.560 134.367,139.553 134.646,140.539 134.620 C 142.141 134.578,142.191 134.512,141.000 134.000 C 139.148 133.204,137.841 133.204,138.333 134.000 M51.068 153.258 C 50.481 153.907,50.000 154.631,50.000 154.866 C 50.000 155.101,49.286 156.878,48.414 158.814 C 47.542 160.749,46.433 163.533,45.950 165.000 C 44.553 169.243,44.300 169.420,29.864 176.265 C 22.049 179.971,22.545 179.952,22.795 176.547 C 22.997 173.797,23.044 173.750,26.333 172.968 C 35.756 170.729,46.177 161.769,50.718 152.000 C 51.213 150.933,51.608 150.647,51.815 151.205 C 51.992 151.685,51.656 152.608,51.068 153.258 M386.786 151.124 C 386.302 151.317,382.332 153.961,377.964 156.998 C 373.596 160.035,367.246 163.954,363.852 165.707 C 360.458 167.460,358.030 169.010,358.455 169.152 C 358.880 169.293,360.677 168.679,362.447 167.787 C 367.870 165.054,369.703 164.920,371.634 167.116 C 372.546 168.152,373.301 168.671,373.312 168.270 C 373.324 167.868,372.733 166.997,372.000 166.333 C 370.066 164.583,370.216 164.331,375.160 161.014 C 380.020 157.754,381.563 157.398,383.448 159.103 C 384.118 159.710,384.667 159.897,384.667 159.518 C 384.667 159.139,383.996 158.384,383.176 157.839 C 380.543 156.091,386.468 151.700,390.882 152.128 C 395.771 152.602,391.811 158.109,381.626 165.000 C 379.458 166.467,375.280 169.411,372.342 171.543 C 369.404 173.675,365.575 176.325,363.833 177.433 C 357.617 181.388,362.419 184.244,370.939 181.659 C 375.589 180.249,378.044 180.357,378.472 181.993 C 378.662 182.722,379.056 183.171,379.347 182.992 C 379.637 182.812,379.731 182.114,379.554 181.440 C 379.290 180.428,380.143 179.891,384.450 178.356 C 387.319 177.334,391.421 175.732,393.565 174.796 C 396.756 173.402,397.692 173.237,398.731 173.886 C 399.765 174.531,400.000 174.494,400.000 173.685 C 400.000 171.894,396.735 171.704,393.078 173.283 C 381.681 178.203,364.185 182.584,363.080 180.796 C 362.837 180.403,367.220 176.994,373.159 172.957 C 382.155 166.840,391.752 159.314,393.506 157.001 C 396.506 153.042,391.952 149.059,386.786 151.124 M34.214 158.032 C 33.546 158.852,32.135 160.541,31.078 161.784 C 28.740 164.533,29.029 165.004,32.231 163.666 C 35.543 162.282,35.296 163.094,31.167 167.152 C 26.211 172.023,22.177 173.401,23.892 169.638 C 24.318 168.703,24.667 167.472,24.667 166.904 C 24.667 165.557,29.384 160.153,32.531 157.896 C 35.376 155.855,35.948 155.902,34.214 158.032 M336.667 159.987 C 336.667 160.817,339.509 161.551,341.114 161.136 C 341.945 160.922,341.762 160.797,340.539 160.744 C 339.553 160.701,338.560 160.367,338.333 160.000 C 337.804 159.144,336.667 159.135,336.667 159.987 M325.333 170.039 C 325.333 171.528,325.575 172.596,325.871 172.413 C 326.387 172.094,326.128 167.333,325.594 167.333 C 325.451 167.333,325.333 168.551,325.333 170.039 M138.810 172.500 C 139.240 173.508,140.031 174.860,140.569 175.504 C 142.256 177.523,140.873 177.571,136.359 175.652 C 131.536 173.603,131.543 173.610,133.103 171.886 C 134.839 169.968,137.870 170.295,138.810 172.500 M339.167 176.108 C 338.158 176.476,337.333 177.053,337.333 177.389 C 337.333 178.370,338.400 178.099,340.093 176.689 C 341.861 175.216,341.768 175.158,339.167 176.108 M361.333 183.191 C 361.333 183.522,361.977 184.365,362.764 185.063 C 364.184 186.325,364.189 186.323,363.427 184.870 C 362.577 183.250,361.333 182.252,361.333 183.191 M335.365 189.346 C 332.266 190.439,328.929 191.333,327.949 191.333 C 325.340 191.333,321.979 192.093,322.298 192.610 C 323.415 194.417,342.000 189.787,342.000 187.702 C 342.000 187.088,341.227 187.279,335.365 189.346 M16.331 192.667 C 16.603 193.583,17.257 195.383,17.783 196.667 C 19.379 200.556,22.000 212.323,22.000 215.594 C 22.000 217.284,22.300 218.667,22.667 218.667 C 25.139 218.667,20.536 197.067,17.126 192.667 L 15.835 191.000 16.331 192.667 M86.786 198.833 C 88.415 202.059,90.411 204.472,92.286 205.482 C 93.427 206.096,93.403 205.958,92.076 204.254 C 91.253 203.198,89.655 200.908,88.524 199.167 C 85.969 195.233,84.860 195.020,86.786 198.833 M89.971 217.063 C 91.605 218.862,93.555 220.770,94.305 221.303 C 95.054 221.836,94.052 220.486,92.079 218.303 C 90.106 216.120,88.156 214.212,87.746 214.063 C 87.336 213.915,88.337 215.265,89.971 217.063 M165.659 225.000 C 165.857 229.400,166.432 234.650,166.936 236.667 C 168.123 241.414,168.212 239.218,167.277 228.274 C 166.296 216.805,165.190 214.565,165.659 225.000 M161.378 231.698 C 161.338 233.536,163.902 241.682,168.189 253.333 C 170.351 259.210,174.524 267.333,175.381 267.333 C 175.765 267.333,175.971 267.108,175.840 266.833 C 175.709 266.558,174.502 264.083,173.159 261.333 C 170.526 255.941,170.142 254.933,165.552 241.333 C 161.487 229.294,161.435 229.172,161.378 231.698 M102.451 233.964 C 103.853 235.777,105.389 237.423,105.864 237.621 C 106.339 237.819,105.307 236.336,103.570 234.324 C 99.641 229.773,99.069 229.589,102.451 233.964 M107.998 240.331 C 108.857 241.246,109.708 241.848,109.887 241.668 C 110.330 241.226,107.965 238.667,107.114 238.667 C 106.740 238.667,107.138 239.415,107.998 240.331 M193.333 241.062 L 191.667 242.076 193.667 241.658 C 194.767 241.427,195.952 240.960,196.300 240.619 C 197.327 239.615,195.186 239.934,193.333 241.062 M283.204 248.833 C 284.996 250.964,299.933 260.800,300.891 260.481 C 301.272 260.354,299.202 258.777,296.291 256.976 C 293.381 255.175,289.350 252.419,287.333 250.851 C 283.801 248.105,281.748 247.102,283.204 248.833 M25.461 252.846 C 25.075 253.311,23.865 257.736,22.771 262.679 C 21.678 267.622,20.575 272.192,20.320 272.833 C 20.005 273.628,20.173 274.000,20.845 274.000 C 21.389 274.000,22.013 273.175,22.233 272.167 C 24.373 262.362,26.482 252.000,26.340 252.000 C 26.243 252.000,25.847 252.381,25.461 252.846 M24.000 271.444 C 24.000 274.734,24.330 274.628,24.864 271.167 C 25.077 269.782,24.971 268.667,24.625 268.667 C 24.281 268.667,24.000 269.917,24.000 271.444 " stroke="none" fill="#000000" fill-rule="evenodd"></path></g></svg>